# xmcd
#
# Track frame offsets: 
#        150
#        11415
#        24322
#        35205
#        51725
#        67730
#        78515
#        89797
#        103845
#        116175
#        130520
#        143630
#
# Disc length: 2097 seconds
#
# Revision: 0
# Processed by: cddbd v1.4PL0 Copyright (c) Steve Scherf et al.
# Submitted via: ExactAudioCopy v0.90b4
#
DISCID=a5082f0c
DTITLE=Patent Pending - Through The Window
DYEAR=2001
DGENRE=Bluegrass
TTITLE0=Through The Window
TTITLE1=Turn The Green Hills Brown
TTITLE2=Boderline
TTITLE3=Someone Took My Place With You
TTITLE4=Will A Light Be Shining Bright Within Your Soul
TTITLE5=Peacock Rag
TTITLE6=Fufus Taylor
TTITLE7=I Know You're Married But I Love You Still
TTITLE8=You'll Never Know (How Much It Hurts)
TTITLE9=House Of Hearbreak
TTITLE10=Future On Ice
TTITLE11=The Old Country Church
EXTD=
EXTT0=
EXTT1=
EXTT2=
EXTT3=
EXTT4=
EXTT5=
EXTT6=
EXTT7=
EXTT8=
EXTT9=
EXTT10=
EXTT11=
PLAYORDER=
